<svg width="100%" viewBox="0 0 680 960" xmlns="http://www.w3.org/2000/svg"><defs><marker id="a" viewBox="0 0 10 10" refX="8" refY="5" markerWidth="6" markerHeight="6" orient="auto-start-reverse"><path d="M2 1L8 5L2 9" fill="none" stroke="context-stroke" stroke-width="1.5" stroke-linecap="round" stroke-linejoin="round"/></marker></defs><style>text{font-family:system-ui,sans-serif}.t{font-size:13px;font-weight:500}.s{font-size:10.5px;fill:#64748B}.h{font-size:14px;font-weight:500}.d{font-size:11px;fill:#334155}</style><text x="340" y="22" text-anchor="middle" class="h" fill="#1E293B">Forge 完整工作流（5 种路径）</text><rect x="250" y="35" width="180" height="40" rx="20" fill="#EEF2FF" stroke="#C7D2FE"/><text x="340" y="60" text-anchor="middle" class="t" fill="#3730A3">用户有想法</text><line x1="340" y1="75" x2="340" y2="95" stroke="#818CF8" stroke-width="1.5" marker-end="url(#a)"/><rect x="230" y="95" width="220" height="40" rx="12" fill="#EEF2FF" stroke="#C7D2FE"/><text x="340" y="115" text-anchor="middle" class="t" fill="#3730A3">/forge（检查状态·推荐）</text><line x1="340" y1="135" x2="340" y2="160" stroke="#818CF8" stroke-width="1.5" marker-end="url(#a)"/><rect x="200" y="160" width="280" height="45" rx="12" fill="#FFFBEB" stroke="#FDE68A"/><text x="340" y="180" text-anchor="middle" class="t" fill="#92400E">forge-brainstorm</text><text x="340" y="195" text-anchor="middle" class="s">产品·内容·构建·探索 → 思考文档</text><line x1="165" y1="182" x2="200" y2="182" stroke="#D97706" stroke-width="1" stroke-dasharray="4"/><text x="160" y="186" text-anchor="end" class="d">可跳过</text><line x1="340" y1="205" x2="340" y2="225" stroke="#D97706" stroke-width="1.5" marker-end="url(#a)"/><line x1="480" y1="182" x2="570" y2="182" stroke="#94A3B8" stroke-width="1" stroke-dasharray="4"/><text x="575" y="186" class="s">内容模式→直接输出</text><rect x="230" y="225" width="100" height="35" rx="8" fill="#F8FAFC" stroke="#E2E8F0"/><text x="280" y="247" text-anchor="middle" class="d">需要PRD?</text><line x1="280" y1="260" x2="200" y2="290" stroke="#059669" stroke-width="1" marker-end="url(#a)"/><text x="225" y="278" class="s" fill="#059669">是</text><line x1="280" y1="260" x2="420" y2="290" stroke="#94A3B8" stroke-width="1" marker-end="url(#a)"/><text x="370" y="278" class="s">否(demo)</text><rect x="100" y="290" width="200" height="40" rx="12" fill="#FFFBEB" stroke="#FDE68A"/><text x="200" y="315" text-anchor="middle" class="t" fill="#92400E">forge-prd → PRD.md</text><line x1="200" y1="330" x2="340" y2="365" stroke="#D97706" stroke-width="1.5" marker-end="url(#a)"/><line x1="420" y1="310" x2="420" y2="365" stroke="#94A3B8" stroke-width="1" marker-end="url(#a)"/><text x="425" y="345" class="s">轻量模式</text><rect x="200" y="365" width="280" height="45" rx="12" fill="#FFFBEB" stroke="#FDE68A"/><text x="340" y="385" text-anchor="middle" class="t" fill="#92400E">forge-dev（调度器）</text><text x="340" y="400" text-anchor="middle" class="s">Discussion → Research → 调度子Skill</text><line x1="340" y1="410" x2="340" y2="435" stroke="#D97706" stroke-width="1.5" marker-end="url(#a)"/><rect x="140" y="435" width="130" height="35" rx="8" fill="#F8FAFC" stroke="#E2E8F0"/><text x="205" y="457" text-anchor="middle" class="d">有UI?</text><line x1="205" y1="470" x2="175" y2="500" stroke="#059669" stroke-width="1" marker-end="url(#a)"/><text x="175" y="490" class="s" fill="#059669">是</text><line x1="205" y1="470" x2="340" y2="500" stroke="#94A3B8" stroke-width="1" marker-end="url(#a)"/><text x="285" y="490" class="s">纯后端</text><rect x="30" y="500" width="280" height="45" rx="12" fill="#ECFDF5" stroke="#A7F3D0"/><text x="170" y="520" text-anchor="middle" class="t" fill="#065F46">forge-design → DESIGN.md</text><text x="170" y="535" text-anchor="middle" class="s">L1完整 / L2轻量 / L3跳过</text><line x1="170" y1="545" x2="170" y2="565" stroke="#059669" stroke-width="1" marker-end="url(#a)"/><rect x="30" y="565" width="280" height="35" rx="12" fill="#ECFDF5" stroke="#A7F3D0"/><text x="170" y="588" text-anchor="middle" class="t" fill="#065F46">forge-design-impl → 样式代码</text><line x1="170" y1="600" x2="340" y2="630" stroke="#059669" stroke-width="1.5" marker-end="url(#a)"/><line x1="340" y1="520" x2="340" y2="630" stroke="#94A3B8" stroke-width="1"/><rect x="200" y="630" width="280" height="55" rx="12" fill="#EEF2FF" stroke="#C7D2FE"/><text x="340" y="650" text-anchor="middle" class="t" fill="#3730A3">forge-eng → 代码实现</text><text x="340" y="665" text-anchor="middle" class="s">Worktree · TDD · Wave并行 · Verification</text><text x="340" y="678" text-anchor="middle" class="s">ENGINEERING.md · 原子commit</text><line x1="340" y1="685" x2="340" y2="705" stroke="#4F46E5" stroke-width="1.5" marker-end="url(#a)"/><rect x="200" y="705" width="280" height="45" rx="12" fill="#FFF1F2" stroke="#FECDD3"/><text x="340" y="725" text-anchor="middle" class="t" fill="#9F1239">forge-qa（纯验收）</text><text x="340" y="740" text-anchor="middle" class="s">只测不修 · 有bug→报告回forge-eng</text><path d="M480 725 Q530 725 530 680 Q530 655 480 655" fill="none" stroke="#E11D48" stroke-width="1" stroke-dasharray="4" marker-end="url(#a)"/><text x="545" y="690" class="s" fill="#E11D48">有bug</text><line x1="340" y1="750" x2="340" y2="775" stroke="#E11D48" stroke-width="1.5" marker-end="url(#a)"/><text x="345" y="768" class="s" fill="#059669">通过</text><rect x="200" y="775" width="280" height="35" rx="12" fill="#FFF1F2" stroke="#FECDD3"/><text x="340" y="797" text-anchor="middle" class="t" fill="#9F1239">forge-review（PR审查）</text><line x1="340" y1="810" x2="340" y2="835" stroke="#E11D48" stroke-width="1.5" marker-end="url(#a)"/><rect x="200" y="835" width="280" height="35" rx="12" fill="#F0F9FF" stroke="#BAE6FD"/><text x="340" y="857" text-anchor="middle" class="t" fill="#075985">forge-ship → PR / merge</text><line x1="340" y1="870" x2="260" y2="900" stroke="#0284C7" stroke-width="1" marker-end="url(#a)"/><line x1="340" y1="870" x2="420" y2="900" stroke="#0284C7" stroke-width="1" marker-end="url(#a)"/><rect x="140" y="900" width="160" height="35" rx="12" fill="#F0F9FF" stroke="#BAE6FD"/><text x="220" y="922" text-anchor="middle" class="t" fill="#075985">doc-release</text><rect x="380" y="900" width="160" height="35" rx="12" fill="#F0F9FF" stroke="#BAE6FD"/><text x="460" y="922" text-anchor="middle" class="t" fill="#075985">fupan（复盘）</text></svg>
