<svg width="100%" viewBox="0 0 680 680" xmlns="http://www.w3.org/2000/svg"><defs><marker id="a" viewBox="0 0 10 10" refX="8" refY="5" markerWidth="6" markerHeight="6" orient="auto-start-reverse"><path d="M2 1L8 5L2 9" fill="none" stroke="context-stroke" stroke-width="1.5" stroke-linecap="round" stroke-linejoin="round"/></marker></defs><style>text{font-family:system-ui,sans-serif}.t{font-size:13px;font-weight:500}.s{font-size:10.5px;fill:#64748B}.h{font-size:14px;font-weight:500}.p{font-size:11px;font-weight:500}</style><rect x="20" y="10" width="640" height="50" rx="12" fill="#EEF2FF" stroke="#C7D2FE"/><text x="340" y="32" text-anchor="middle" class="h" fill="#3730A3">用户层</text><text x="340" y="48" text-anchor="middle" class="s">/forge — 任何时候不知道下一步，打这个命令</text><rect x="20" y="75" width="640" height="95" rx="12" fill="#FFFBEB" stroke="#FDE68A"/><text x="40" y="95" class="p" fill="#92400E">探索层（讨论 + 规划）</text><rect x="35" y="105" width="145" height="50" rx="8" fill="#FFF" stroke="#FDE68A"/><text x="107" y="127" text-anchor="middle" class="t" fill="#92400E">brainstorm</text><text x="107" y="142" text-anchor="middle" class="s">4模式·6阶段</text><rect x="195" y="105" width="110" height="50" rx="8" fill="#FFF" stroke="#FDE68A"/><text x="250" y="127" text-anchor="middle" class="t" fill="#92400E">prd</text><text x="250" y="142" text-anchor="middle" class="s">需求管理</text><rect x="320" y="105" width="110" height="50" rx="8" fill="#FFF" stroke="#FDE68A"/><text x="375" y="127" text-anchor="middle" class="t" fill="#92400E">dev</text><text x="375" y="142" text-anchor="middle" class="s">调度器</text><rect x="445" y="105" width="200" height="50" rx="8" fill="#FFF" stroke="#FDE68A"/><text x="545" y="127" text-anchor="middle" class="t" fill="#92400E">deliver</text><text x="545" y="142" text-anchor="middle" class="s">端到端流水线(含dev全流程)</text><line x1="340" y1="170" x2="340" y2="190" stroke="#D97706" stroke-width="1.5" marker-end="url(#a)"/><rect x="20" y="190" width="640" height="95" rx="12" fill="#ECFDF5" stroke="#A7F3D0"/><text x="40" y="210" class="p" fill="#065F46">设计层（规划 + 实现分离）</text><rect x="35" y="220" width="295" height="50" rx="8" fill="#FFF" stroke="#A7F3D0"/><text x="182" y="242" text-anchor="middle" class="t" fill="#065F46">design（纯规划）</text><text x="182" y="257" text-anchor="middle" class="s">分级门控·99条UX·搜索引擎·反AI-slop</text><rect x="350" y="220" width="295" height="50" rx="8" fill="#FFF" stroke="#A7F3D0"/><text x="497" y="242" text-anchor="middle" class="t" fill="#065F46">design-impl（纯实现）</text><text x="497" y="257" text-anchor="middle" class="s">Token驱动·shadcn/ui·CSS优先·原子提交</text><line x1="340" y1="285" x2="340" y2="305" stroke="#059669" stroke-width="1.5" marker-end="url(#a)"/><rect x="20" y="305" width="640" height="95" rx="12" fill="#EEF2FF" stroke="#C7D2FE"/><text x="40" y="325" class="p" fill="#3730A3">工程层（Worktree + TDD + Verification）</text><rect x="35" y="335" width="295" height="50" rx="8" fill="#FFF" stroke="#C7D2FE"/><text x="182" y="357" text-anchor="middle" class="t" fill="#3730A3">eng（工程实现）</text><text x="182" y="372" text-anchor="middle" class="s">Worktree隔离·四级TDD·Wave并行·验证门控</text><rect x="350" y="335" width="295" height="50" rx="8" fill="#FFF" stroke="#C7D2FE"/><text x="497" y="357" text-anchor="middle" class="t" fill="#3730A3">bugfix（Bug调查修复）</text><text x="497" y="372" text-anchor="middle" class="s">6阶段·根因铁律·三振出局·引擎内联</text><line x1="340" y1="400" x2="340" y2="420" stroke="#4F46E5" stroke-width="1.5" marker-end="url(#a)"/><rect x="20" y="420" width="640" height="70" rx="12" fill="#FFF1F2" stroke="#FECDD3"/><text x="40" y="440" class="p" fill="#9F1239">质量层（只测不修 + 结构审查）</text><rect x="35" y="450" width="295" height="30" rx="8" fill="#FFF" stroke="#FECDD3"/><text x="182" y="470" text-anchor="middle" class="t" fill="#9F1239">qa（纯验收）</text><rect x="350" y="450" width="295" height="30" rx="8" fill="#FFF" stroke="#FECDD3"/><text x="497" y="470" text-anchor="middle" class="t" fill="#9F1239">review（PR审查）</text><line x1="340" y1="490" x2="340" y2="510" stroke="#E11D48" stroke-width="1.5" marker-end="url(#a)"/><rect x="20" y="510" width="640" height="70" rx="12" fill="#F0F9FF" stroke="#BAE6FD"/><text x="40" y="530" class="p" fill="#075985">发布层</text><rect x="35" y="540" width="190" height="30" rx="8" fill="#FFF" stroke="#BAE6FD"/><text x="130" y="560" text-anchor="middle" class="t" fill="#075985">ship（发布）</text><rect x="245" y="540" width="190" height="30" rx="8" fill="#FFF" stroke="#BAE6FD"/><text x="340" y="560" text-anchor="middle" class="t" fill="#075985">doc-release（文档）</text><rect x="455" y="540" width="190" height="30" rx="8" fill="#FFF" stroke="#BAE6FD"/><text x="550" y="560" text-anchor="middle" class="t" fill="#075985">fupan（复盘）</text><rect x="20" y="600" width="640" height="60" rx="12" fill="#F8FAFC" stroke="#E2E8F0"/><text x="40" y="620" class="p" fill="#334155">文档层（Skill 间的唯一通信方式）</text><text x="40" y="640" class="s" fill="#334155">brainstorm-*.md → PRD.md → DESIGN.md → ENGINEERING.md → QA.md → CHANGELOG → 复盘文档</text></svg>
