<svg width="100%" viewBox="0 0 680 520" xmlns="http://www.w3.org/2000/svg"><defs><marker id="a" viewBox="0 0 10 10" refX="8" refY="5" markerWidth="6" markerHeight="6" orient="auto-start-reverse"><path d="M2 1L8 5L2 9" fill="none" stroke="context-stroke" stroke-width="1.5" stroke-linecap="round" stroke-linejoin="round"/></marker></defs><style>text{font-family:system-ui,sans-serif}.t{font-size:13px;font-weight:500}.s{font-size:10.5px;fill:#64748B}.h{font-size:14px;font-weight:500}.p{font-size:11px;font-weight:500}</style><text x="340" y="22" text-anchor="middle" class="h" fill="#3730A3">forge-eng 内部：三大机制</text><rect x="20" y="40" width="200" height="460" rx="12" fill="#EEF2FF" stroke="#C7D2FE"/><text x="120" y="62" text-anchor="middle" class="p" fill="#3730A3">Worktree 隔离</text><rect x="35" y="75" width="170" height="35" rx="8" fill="#FFF" stroke="#C7D2FE"/><text x="120" y="97" text-anchor="middle" class="s" fill="#334155">检查 .worktrees/ 存在</text><rect x="35" y="125" width="170" height="35" rx="8" fill="#FFF" stroke="#C7D2FE"/><text x="120" y="147" text-anchor="middle" class="s" fill="#334155">确保 .gitignore 包含</text><rect x="35" y="175" width="170" height="35" rx="8" fill="#FFF" stroke="#C7D2FE"/><text x="120" y="192" text-anchor="middle" class="s" fill="#334155">git worktree add</text><text x="120" y="204" text-anchor="middle" class="s">.worktrees/{slug}</text><rect x="35" y="225" width="170" height="35" rx="8" fill="#FFF" stroke="#C7D2FE"/><text x="120" y="247" text-anchor="middle" class="s" fill="#334155">npm install / pip install</text><rect x="35" y="275" width="170" height="35" rx="8" fill="#FFF" stroke="#C7D2FE"/><text x="120" y="297" text-anchor="middle" class="s" fill="#334155">基线测试验证</text><text x="120" y="345" text-anchor="middle" class="s" fill="#3730A3">所有 Wave 在此执行</text><rect x="35" y="365" width="170" height="55" rx="8" fill="#EEF2FF" stroke="#C7D2FE"/><text x="120" y="385" text-anchor="middle" class="t" fill="#3730A3">收尾 4 选项</text><text x="120" y="400" text-anchor="middle" class="s">merge·PR·keep·discard</text><text x="120" y="415" text-anchor="middle" class="s">worktree remove</text><rect x="35" y="435" width="170" height="50" rx="8" fill="#FFF1F2" stroke="#FECDD3"/><text x="120" y="455" text-anchor="middle" class="t" fill="#9F1239">多会话安全</text><text x="120" y="470" text-anchor="middle" class="s">会话A和会话B</text><text x="120" y="482" text-anchor="middle" class="s">各自独立worktree</text><rect x="240" y="40" width="200" height="460" rx="12" fill="#ECFDF5" stroke="#A7F3D0"/><text x="340" y="62" text-anchor="middle" class="p" fill="#065F46">四级 TDD</text><rect x="255" y="75" width="170" height="45" rx="8" fill="#FFF" stroke="#A7F3D0"/><text x="340" y="93" text-anchor="middle" class="t" fill="#065F46">严格 TDD</text><text x="340" y="108" text-anchor="middle" class="s">后端API·数据·Bug修复</text><text x="340" y="118" text-anchor="middle" class="s">RED-GREEN-REFACTOR</text><rect x="255" y="130" width="170" height="45" rx="8" fill="#FFF" stroke="#A7F3D0"/><text x="340" y="148" text-anchor="middle" class="t" fill="#065F46">轻量 TDD</text><text x="340" y="163" text-anchor="middle" class="s">前端组件 *.tsx/*.vue</text><text x="340" y="173" text-anchor="middle" class="s">关键交互测试</text><rect x="255" y="185" width="170" height="45" rx="8" fill="#FFF" stroke="#A7F3D0"/><text x="340" y="203" text-anchor="middle" class="t" fill="#065F46">验证驱动</text><text x="340" y="218" text-anchor="middle" class="s">无测试框架时</text><text x="340" y="228" text-anchor="middle" class="s">curl / 截图 / 脚本</text><rect x="255" y="240" width="170" height="35" rx="8" fill="#FFF" stroke="#A7F3D0"/><text x="340" y="262" text-anchor="middle" class="t" fill="#065F46">跳过</text><text x="340" y="272" text-anchor="middle" class="s">纯样式/配置/文档</text><rect x="255" y="295" width="170" height="65" rx="8" fill="#ECFDF5" stroke="#A7F3D0"/><text x="340" y="315" text-anchor="middle" class="t" fill="#065F46">测试框架引导</text><text x="340" y="330" text-anchor="middle" class="s">首次检测无框架时</text><text x="340" y="345" text-anchor="middle" class="s">推荐vitest/pytest</text><text x="340" y="355" text-anchor="middle" class="s">可选安装或跳过</text><rect x="255" y="375" width="170" height="55" rx="8" fill="#FFF1F2" stroke="#FECDD3"/><text x="340" y="395" text-anchor="middle" class="t" fill="#9F1239">Bug修复铁律</text><text x="340" y="410" text-anchor="middle" class="s">无论文件类型</text><text x="340" y="422" text-anchor="middle" class="s">一律严格TDD</text><rect x="460" y="40" width="200" height="460" rx="12" fill="#FFF1F2" stroke="#FECDD3"/><text x="560" y="62" text-anchor="middle" class="p" fill="#9F1239">Verification Gate</text><rect x="475" y="75" width="170" height="35" rx="8" fill="#FFF" stroke="#FECDD3"/><text x="560" y="97" text-anchor="middle" class="s" fill="#334155">任务实现完成</text><rect x="475" y="125" width="170" height="35" rx="8" fill="#FFF" stroke="#FECDD3"/><text x="560" y="147" text-anchor="middle" class="s" fill="#334155">运行验证命令</text><rect x="475" y="175" width="170" height="35" rx="8" fill="#FFF" stroke="#FECDD3"/><text x="560" y="197" text-anchor="middle" class="s" fill="#334155">读取完整输出</text><rect x="475" y="225" width="170" height="35" rx="8" fill="#FFF" stroke="#FECDD3"/><text x="560" y="247" text-anchor="middle" class="s" fill="#334155">检查 exit code</text><rect x="475" y="285" width="75" height="30" rx="8" fill="#ECFDF5" stroke="#A7F3D0"/><text x="512" y="305" text-anchor="middle" class="s" fill="#065F46">commit</text><rect x="560" y="285" width="85" height="30" rx="8" fill="#FFF1F2" stroke="#FECDD3"/><text x="602" y="305" text-anchor="middle" class="s" fill="#9F1239">修复重试 ≤3次</text><rect x="475" y="355" width="170" height="50" rx="8" fill="#FFF1F2" stroke="#FECDD3"/><text x="560" y="375" text-anchor="middle" class="t" fill="#9F1239">3次失败→暂停</text><text x="560" y="390" text-anchor="middle" class="s">报告用户：继续/跳过/回退</text><rect x="475" y="420" width="170" height="70" rx="8" fill="#F8FAFC" stroke="#E2E8F0"/><text x="560" y="440" text-anchor="middle" class="t" fill="#334155">措辞纪律</text><text x="560" y="458" text-anchor="middle" class="s" fill="#E11D48">禁止 should work</text><text x="560" y="471" text-anchor="middle" class="s" fill="#E11D48">禁止 probably fixed</text><text x="560" y="484" text-anchor="middle" class="s" fill="#059669">必须 验证通过：{cmd}→{result}</text></svg>
